<?xml version="1.0" standalone="no"?>
<!DOCTYPE svg PUBLIC "-//W3C//DTD SVG 20010904//EN"
 "http://www.w3.org/TR/2001/REC-SVG-20010904/DTD/svg10.dtd">
<svg version="1.0" xmlns="http://www.w3.org/2000/svg"
 width="500.000000pt" height="500.000000pt" viewBox="0 0 500.000000 500.000000"
 preserveAspectRatio="xMidYMid meet">
<metadata>
Created by potrace 1.11, written by Peter Selinger 2001-2013
</metadata>
<g transform="translate(0.000000,500.000000) scale(0.100000,-0.100000)"
fill="#000000" stroke="none">
<path d="M3175 4930 c-16 -9 -55 -24 -85 -34 -107 -35 -167 -69 -194 -111 -14
-21 -26 -46 -26 -55 -1 -8 -7 -26 -14 -39 l-13 -23 -29 43 c-16 23 -33 44 -39
46 -5 1 -39 -19 -75 -46 l-64 -49 -87 -1 c-106 -2 -142 -8 -219 -36 -104 -37
-169 -93 -218 -186 -28 -54 -29 -61 -25 -155 4 -89 3 -102 -16 -125 -32 -41
-59 -43 -93 -8 -26 25 -29 34 -23 67 7 42 9 40 -86 80 -29 13 -48 27 -52 41
-7 30 14 36 52 17 41 -22 55 -12 114 78 25 39 58 83 72 98 43 46 48 72 19 99
-20 19 -24 31 -21 54 8 46 9 50 59 172 12 29 19 56 15 59 -3 4 -22 -1 -41 -10
-19 -9 -37 -16 -40 -16 -3 0 -34 -13 -68 -28 -35 -16 -77 -34 -95 -41 -17 -7
-39 -21 -48 -31 -16 -18 -16 -19 6 -25 13 -3 46 -7 73 -9 53 -4 66 -16 60 -54
-8 -41 -48 -129 -72 -156 -35 -42 -131 -83 -175 -77 -4 1 4 19 18 41 45 71 27
115 -56 136 -48 13 -53 12 -102 -12 -77 -39 -200 -122 -219 -149 -17 -22 -17
-24 2 -48 18 -23 81 -56 122 -63 9 -2 42 -13 73 -25 68 -25 81 -48 55 -99 -29
-57 -51 -70 -121 -75 -207 -14 -236 -18 -334 -42 -33 -8 -71 -18 -85 -21 -29
-7 -126 -8 -155 -1 -11 2 -44 17 -73 32 -49 26 -55 27 -80 13 -107 -59 -111
-58 -119 16 -3 32 1 52 17 76 29 47 48 51 77 13 13 -17 34 -31 45 -31 22 0
298 179 298 193 0 13 -18 8 -104 -28 -47 -19 -89 -35 -94 -35 -5 0 -9 10 -9
23 2 40 -12 84 -27 90 -36 14 -186 -55 -252 -115 -83 -77 -175 -246 -151 -279
7 -9 34 -46 60 -83 l49 -66 -45 -44 c-67 -65 -90 -115 -88 -195 1 -36 2 -70 2
-76 -1 -30 -15 -79 -77 -265 -37 -113 -69 -209 -70 -215 -7 -37 -72 -195 -111
-270 -25 -49 -52 -117 -59 -150 -13 -58 -13 -226 -1 -274 14 -52 51 -113 100
-162 54 -53 237 -189 255 -189 6 0 12 -4 14 -8 3 -8 198 -105 260 -130 15 -6
27 -19 27 -29 -1 -25 9 -70 27 -126 16 -49 12 -80 -5 -36 -5 13 -18 32 -28 42
-25 21 -35 11 -53 -50 -14 -45 -41 -63 -65 -43 -10 8 -13 35 -11 105 5 144 -7
141 -63 -17 -11 -32 -18 -58 -16 -58 3 0 1 -8 -4 -18 -6 -11 -13 -39 -16 -64
-6 -42 -3 -49 26 -83 36 -40 28 -39 160 -20 30 5 53 -16 62 -55 13 -51 48 -80
102 -85 59 -6 144 -15 165 -18 9 -1 41 -23 71 -47 30 -25 78 -61 107 -80 28
-19 52 -39 52 -45 0 -16 -686 -688 -758 -742 -90 -68 -112 -98 -117 -164 -4
-45 30 -101 76 -124 68 -36 164 -22 220 32 l27 25 83 -40 c160 -77 284 -117
427 -138 20 -3 43 -7 51 -10 46 -15 431 -25 552 -13 86 8 150 18 229 34 14 3
68 8 120 11 84 5 103 3 167 -19 82 -29 101 -27 146 16 83 78 207 85 207 11 0
-40 35 -63 88 -58 56 5 85 24 131 88 38 53 31 84 -9 41 -13 -14 -31 -25 -40
-25 -20 0 -73 47 -66 58 3 5 7 22 10 38 9 49 28 84 45 85 44 2 74 14 169 71
57 33 117 62 133 64 18 2 59 -7 95 -22 110 -44 120 -43 191 15 35 27 76 58 93
68 17 10 29 24 28 33 -8 41 -143 59 -205 27 -50 -27 -123 2 -123 47 0 27 49
105 106 166 58 62 68 65 109 34 43 -32 60 -23 70 39 18 113 55 217 79 217 7 0
34 -16 59 -35 25 -19 50 -35 55 -35 5 0 18 12 28 27 23 36 53 61 82 69 12 3
22 10 22 14 0 5 8 11 19 15 10 3 31 17 46 31 14 13 50 36 78 51 29 14 58 33
64 42 28 35 153 311 153 336 0 15 -28 1 -45 -22 -131 -178 -126 -173 -215
-183 -82 -9 -98 -19 -102 -67 -4 -50 -39 -73 -116 -80 -51 -5 -62 -3 -62 9 0
16 27 55 73 103 42 45 50 71 41 145 -12 96 -8 125 25 194 41 83 73 119 158
178 90 62 97 84 21 62 -96 -28 -207 -85 -245 -127 -19 -22 -51 -73 -71 -114
l-35 -75 -24 27 c-28 30 -55 30 -59 0 -2 -11 -6 -40 -9 -65 -7 -54 -54 -138
-104 -187 -58 -57 -408 -313 -428 -313 -3 0 -21 -11 -39 -25 -18 -14 -35 -25
-37 -25 -2 0 -35 -17 -73 -38 -82 -44 -250 -115 -306 -128 -5 -1 -10 -3 -13
-4 -6 -3 -7 -3 -80 -20 -78 -18 -73 -17 -120 -24 -22 -4 -51 -9 -65 -11 -131
-23 -515 -37 -611 -22 -60 9 -194 44 -236 62 -18 8 -36 14 -40 14 -3 -1 -9 3
-12 8 -3 4 -29 24 -58 43 -29 19 -54 40 -57 46 -2 6 32 50 77 97 l82 87 65 -5
c45 -4 70 -2 80 7 31 27 52 71 57 124 3 30 8 54 10 54 2 0 21 -11 43 -25 37
-23 103 -55 172 -83 49 -20 165 -49 238 -59 98 -13 292 -3 405 21 202 43 365
107 533 207 48 29 89 55 92 58 3 3 29 22 58 43 81 55 145 112 267 234 99 100
173 155 215 159 8 1 22 2 31 3 15 2 78 86 92 125 6 15 -2 21 -24 19 -85 -11
-97 -9 -101 12 -9 53 15 73 96 82 53 6 54 6 86 -35 40 -50 61 -51 123 -10 66
43 112 100 132 164 28 92 49 107 172 130 41 8 49 21 23 35 -11 6 -20 7 -20 3
0 -4 -4 -3 -8 4 -4 6 -20 13 -37 16 -16 3 -42 8 -57 12 -37 9 -66 -9 -129 -84
-30 -35 -64 -70 -76 -78 -19 -13 -24 -12 -41 5 -10 10 -18 30 -16 43 1 13 3
24 4 24 1 0 3 10 6 23 7 40 55 132 86 168 19 21 39 34 55 34 24 0 106 40 132
65 20 20 7 41 -39 65 -35 18 -39 23 -30 40 6 11 16 21 23 21 7 1 21 3 32 4 29
3 65 24 65 37 0 15 -39 48 -75 63 -27 12 -33 11 -69 -16 -45 -32 -56 -30 -56
12 0 43 27 89 58 100 20 7 40 32 75 96 26 47 45 88 43 91 -3 2 -30 -11 -61
-29 -125 -76 -148 -86 -169 -81 -38 9 -103 80 -111 122 -8 41 127 179 201 205
66 22 141 1 225 -66 20 -16 44 -29 54 -29 17 0 181 158 172 166 -6 6 -33 12
-59 13 -25 1 -32 36 -13 65 27 40 115 47 115 9 0 -25 37 -79 63 -90 28 -13 44
-3 73 47 31 54 53 116 59 165 7 52 -5 62 -82 71 -60 7 -77 23 -75 71 3 83 45
224 79 264 27 32 66 38 98 15 19 -13 50 -11 72 6 10 8 39 82 47 121 2 7 6 19
9 27 14 34 54 209 49 214 -3 3 -34 -31 -69 -77 -83 -105 -121 -145 -156 -163
-33 -18 -48 -9 -67 36 -13 32 -37 45 -55 30 -11 -9 -105 -192 -110 -215 -1 -5
-8 -23 -14 -40 -31 -73 -33 -120 -10 -166 35 -70 33 -85 -19 -139 l-48 -49
-52 13 c-29 8 -52 10 -52 5 0 -5 -5 -8 -12 -7 -6 2 -21 -20 -33 -48 -32 -78
-46 -96 -83 -99 -50 -4 -170 29 -195 53 -20 20 -20 22 -4 40 25 28 21 32 -31
32 -27 0 -56 6 -66 13 -16 12 -17 17 -6 38 19 37 41 59 60 59 9 0 40 -15 70
-34 30 -19 59 -31 63 -27 8 8 15 46 16 89 1 14 27 50 70 95 100 103 115 125
117 168 2 41 -20 128 -56 221 -33 89 -42 82 -34 -29 6 -97 6 -99 -26 -158 -39
-72 -88 -140 -127 -176 -26 -25 -139 -66 -150 -56 -2 3 5 23 16 45 16 32 18
43 8 56 -38 52 -115 11 -289 -153 -78 -73 -75 -99 16 -141 56 -27 62 -37 46
-85 -15 -45 -44 -65 -95 -65 -38 0 -43 -4 -63 -39 -12 -21 -22 -43 -22 -49 0
-6 -5 -23 -11 -39 -9 -25 -12 -26 -20 -10 -7 11 -22 17 -44 17 -37 0 -51 -12
-174 -148 -40 -45 -85 -94 -100 -110 -106 -114 -133 -142 -137 -142 -2 0 -4
13 -4 28 0 16 -9 39 -20 52 -11 13 -20 28 -20 35 0 6 27 28 61 50 66 42 64 37
45 125 -2 8 22 40 53 70 85 82 211 280 179 280 -30 0 -328 -272 -354 -323 -9
-17 -13 -42 -10 -63 5 -28 3 -34 -12 -34 -10 0 -27 7 -40 15 -25 19 -49 10
-80 -30 -18 -23 -37 -28 -84 -23 -29 3 -21 23 31 70 49 45 98 118 104 153 1
11 5 25 8 30 8 13 4 122 -6 160 -16 63 -9 106 20 131 45 38 58 31 104 -56 13
-25 31 -53 40 -63 14 -17 15 -17 23 3 4 12 10 35 13 50 3 15 9 38 13 51 13 33
3 69 -19 69 -26 0 -32 16 -19 54 16 49 64 99 97 100 15 1 53 -10 83 -25 65
-31 83 -29 69 8 -15 39 -98 121 -136 134 -65 21 -154 -30 -213 -121 -18 -28
-36 -50 -41 -50 -5 0 -26 34 -46 75 -52 109 -72 98 -88 -48 -12 -106 -42 -138
-85 -92 -17 18 -21 35 -21 86 0 85 2 93 37 132 100 114 271 158 446 116 171
-42 212 -43 298 -6 88 38 287 217 274 246 -11 25 -5 62 13 90 34 52 151 158
243 220 150 101 203 143 189 152 -7 4 -20 6 -29 4 -10 -2 -35 -6 -56 -9 -151
-24 -215 -56 -259 -131 -24 -42 -38 -51 -90 -61 -30 -5 -75 36 -75 69 0 11 18
44 40 73 55 73 53 84 -15 81 -40 -2 -61 -9 -78 -25 -24 -23 -46 -28 -62 -14
-12 10 -133 62 -145 62 -4 0 8 -48 27 -107 31 -96 34 -117 31 -188 -8 -154
-52 -194 -193 -174 -129 18 -156 29 -204 84 -44 51 -41 62 19 69 34 4 50 15
54 37 2 8 10 31 20 51 16 36 21 78 11 78 -3 0 -28 -11 -55 -25 -59 -30 -68
-30 -99 -4 -28 23 -37 13 99 121 53 42 101 82 108 91 19 23 -7 28 -43 7z m266
-1807 c10 -11 14 -42 13 -97 0 -68 -5 -91 -29 -141 -29 -61 -128 -169 -149
-162 -23 8 -8 69 40 167 1 3 -1 12 -6 20 -12 19 -107 -53 -151 -115 -18 -25
-36 -45 -40 -45 -5 0 -17 10 -29 22 l-20 22 32 35 c75 80 311 311 318 311 4 0
14 -7 21 -17z"/>
</g>
</svg>
